<svg xmlns="http://www.w3.org/2000/svg" height="1200" width="1600" version="1.1" xmlns:xlink="http://www.w3.org/1999/xlink" xmlns:svgjs="http://svgjs.com/svgjs"><rect fill="#effaff" width="1600" height="1200"></rect><g><path d="M1300.03 479.78C1295.58 470.79 1290.86 461.89 1285.78 453.36 1192.8 293.92 1025.1 214.02 845.87 201.4 806.65 198.58 767.42 200.95 728.2 200.95 526 200.95 400.07 329.24 377 353.94 325.25 409.78 279.85 472.88 262.96 544.7 253.61 585.01 252.52 624.14 260.6 664.64 274.22 733.28 326.88 799.56 371.65 851.13 432.21 921.04 506.3 983.69 593.46 1016.92 806.74 1098.1 1126.25 1059.51 1274.97 871.2 1288.59 853.95 1300.76 835.15 1310.74 815.36 1363.13 711.58 1351.6 584.38 1300.03 479.78Z" fill="#deeff7" opacity="1" stroke-width="2" stroke="none"></path></g><g><path d="M1099.91 358.73C1105.77 368.16 1108.92 379.32 1108.92 391.18 1108.92 425.5 1081.04 453.38 1046.72 453.38 1012.4 453.38 984.52 425.5 984.52 391.18 984.52 356.87 1012.4 328.99 1046.72 328.99 1063.88 328.99 1079.46 335.85 1090.76 347.29" fill="#abedd8" opacity="1" stroke-width="2" stroke="none"></path><path d="M1099.91 358.73C1105.77 368.16 1108.92 379.32 1108.92 391.18 1108.92 425.5 1081.04 453.38 1046.72 453.38 1012.4 453.38 984.52 425.5 984.52 391.18 984.52 356.87 1012.4 328.99 1046.72 328.99 1063.88 328.99 1079.46 335.85 1090.76 347.29" stroke="#333333" stroke-width="2" stroke-linecap="round" stroke-linejoin="round" opacity="1" fill="none"></path><path d="M1108.06 329.84L1090.62 347.15 985.38 452.53" stroke="#333333" stroke-width="2" stroke-linecap="round" stroke-linejoin="round" opacity="1" fill="none"></path></g><g><path d="M513.48 893.18L265.88 893.51" stroke="#333333" stroke-width="2" stroke-linecap="round" stroke-linejoin="round" opacity="1" fill="none"></path></g><g><path d="M520.09 892.87H407.87L426.29 820.83 435.64 784.28 452.14 719.77H475.81L492.32 784.28 501.48 820.83 509.59 852.41 513.12 866.25 520.09 892.87Z" fill="#48466d" stroke="#333333" stroke-width="2" stroke-linecap="round" stroke-linejoin="round" opacity="1"></path><path d="M501.48 820.83H426.29L435.64 784.28H492.32L501.48 820.83Z" fill="#3d84a8" stroke="#333333" stroke-width="2" stroke-linecap="round" stroke-linejoin="round" opacity="1"></path></g><g><path d="M927.44 988.53H1067.26C1096.54 988.53 1120.62 966.06 1120.62 938.39H1207.43C1219.9 938.39 1230.82 929.6 1231.86 917.55 1232.72 904.53 1221.98 893.78 1208.47 893.78H647.1C612.45 894.27 584.38 920.64 584.38 953.36 584.38 986.08 612.45 1012.45 647.1 1012.94H470.54C449.93 1012.94 433.29 1028.57 433.29 1047.94 433.29 1067.31 449.93 1082.94 470.54 1082.94H552.32 642.77 910.28C925.88 1082.94 938.35 1071.22 938.35 1056.57 938.35 1041.92 925.88 1030.2 910.28 1030.2H843.75C831.45 1030.2 821.57 1020.92 821.57 1009.2 821.57 997.8 831.45 988.36 843.75 988.36H903.87L927.44 988.53Z" fill="#3d84a8" opacity="1" stroke-width="2" stroke="none"></path><path d="M642.94 1082.78H910.28C925.88 1082.78 938.35 1071.06 938.35 1056.41 938.35 1041.76 925.88 1030.04 910.28 1030.04H843.75C831.45 1030.04 821.57 1020.76 821.57 1009.04 821.57 997.64 831.45 988.2 843.75 988.2H903.87" stroke="#333333" stroke-width="2" stroke-linecap="round" stroke-linejoin="round" opacity="1" fill="none"></path><path d="M577.1 1095.15C580.22 1099.55 582.3 1104.92 582.3 1110.78 582.3 1126.24 568.96 1138.78 552.5 1138.78H520.27" stroke="#333333" stroke-width="2" stroke-linecap="round" stroke-linejoin="round" opacity="1" fill="none"></path><path d="M927.44 988.53H1067.26C1096.54 988.53 1120.62 966.06 1120.62 938.39H1207.43C1219.9 938.39 1230.82 929.6 1231.86 917.55 1232.72 904.53 1221.98 893.78 1208.47 893.78H647.1C612.45 894.27 584.38 920.64 584.38 953.36 584.38 986.08 612.45 1012.45 647.1 1012.94H470.54C449.93 1012.94 433.29 1028.57 433.29 1047.94 433.29 1067.31 449.93 1082.94 470.54 1082.94H552.32C557 1082.94 561.33 1083.92 565.67 1085.87" stroke="#333333" stroke-width="2" stroke-linecap="round" stroke-linejoin="round" opacity="1" fill="none"></path><path d="M1120.62 938.39H1021.86" stroke="#333333" stroke-width="2" stroke-linecap="round" stroke-linejoin="round" opacity="1" fill="none"></path><path d="M1001.25 938.39H980.28" stroke="#333333" stroke-width="2" stroke-linecap="round" stroke-linejoin="round" opacity="1" fill="none"></path></g><g><path d="M800 803.77C912.54 803.77 1003.77 712.54 1003.77 600 1003.77 487.46 912.54 396.23 800 396.23 687.46 396.23 596.23 487.46 596.23 600 596.23 712.54 687.46 803.77 800 803.77Z" fill="#abedd8" stroke="#333333" stroke-width="2" stroke-linecap="round" stroke-linejoin="round" opacity="1"></path><path d="M682.99 657.96C679.75 639.24 677.95 619.44 677.95 598.92 677.95 485.87 732.68 395.15 800 396.95 866.96 395.15 922.05 486.95 922.05 598.92 922.05 711.97 867.32 802.69 800 802.69 758.24 802.69 721.51 767.41 699.19 713.41" stroke="#333333" stroke-width="2" stroke-linecap="round" stroke-linejoin="round" opacity="1" fill="none"></path><path d="M800 537.72V397.13" stroke="#333333" stroke-width="2" stroke-linecap="round" stroke-linejoin="round" opacity="1" fill="none"></path><path d="M800 803.27V575.16" stroke="#333333" stroke-width="2" stroke-linecap="round" stroke-linejoin="round" opacity="1" fill="none"></path><path d="M632.23 714.49H967.05" stroke="#333333" stroke-width="2" stroke-linecap="round" stroke-linejoin="round" opacity="1" fill="none"></path><path d="M596.23 600H1003.77" stroke="#333333" stroke-width="2" stroke-linecap="round" stroke-linejoin="round" opacity="1" fill="none"></path><path d="M632.8 484.43H967.88" stroke="#333333" stroke-width="2" stroke-linecap="round" stroke-linejoin="round" opacity="1" fill="none"></path></g><g><path d="M1180.34 892.93H1067.87L1086.32 820.72 1095.7 784.09 1112.24 719.44H1135.96L1152.51 784.09 1161.69 820.72 1169.82 852.37 1173.36 866.24 1180.34 892.93Z" fill="#48466d" stroke="#333333" stroke-width="2" stroke-linecap="round" stroke-linejoin="round" opacity="1"></path><path d="M1161.69 820.72H1086.32L1095.7 784.09H1152.51L1161.69 820.72Z" fill="#3d84a8" stroke="#333333" stroke-width="2" stroke-linecap="round" stroke-linejoin="round" opacity="1"></path></g></svg>